<svg aria-hidden="true" style="width:0;height:0;position:absolute;overflow:hidden" xmlns="http://www.w3.org/2000/svg"><defs><symbol id="search" viewBox="0 0 32 32"><path d="m31.121 26.879-7.341-7.342a14.128 14.128 0 0 1-4.243 4.242l7.342 7.342a2.998 2.998 0 0 0 4.242 0 2.998 2.998 0 0 0 0-4.242zM24 12c0-6.627-5.373-12-12-12S0 5.373 0 12s5.373 12 12 12 12-5.373 12-12zm-12 9c-4.963 0-9-4.037-9-9s4.037-9 9-9 9 4.037 9 9-4.037 9-9 9z"/><path d="M5 12h2c0-2.757 2.243-5 5-5V5c-3.859 0-7 3.141-7 7z"/></symbol></defs></svg>