<svg aria-hidden="true" style="position: absolute; width: 0; height: 0; overflow: hidden;" version="1.1" xmlns="http://www.w3.org/2000/svg" xmlns:xlink="http://www.w3.org/1999/xlink">
<defs>
<symbol id="search" viewBox="0 0 32 32">
<path d="M31.121 26.879l-7.341-7.342c-1.094 1.701-2.541 3.148-4.243 4.242l7.342 7.342c1.172 1.172 3.072 1.172 4.242 0 1.172-1.17 1.172-3.070 0-4.242z"></path>
<path d="M24 12c0-6.627-5.373-12-12-12s-12 5.373-12 12 5.373 12 12 12c6.627 0 12-5.373 12-12zM12 21c-4.963 0-9-4.037-9-9s4.037-9 9-9c4.963 0 9 4.037 9 9s-4.037 9-9 9z"></path>
<path d="M5 12h2c0-2.757 2.243-5 5-5v-2c-3.859 0-7 3.141-7 7z"></path>
</symbol>
</defs>
</svg>
